<svg xmlns="http://www.w3.org/2000/svg" viewBox="0 0 24 24" role="img" aria-label="Visual Mainframe Society">
  <g transform="scale(0.169623, 0.178545)" fill="currentColor">
    <path d="M65.41,47.16c-.53,0-.86-.22-1.01-.65L49.36.94c-.19-.62.02-.94.65-.94h7.56c.53,0,.86.22,1.01.65l8.64,28.44c.53,1.73,1.03,3.46,1.51,5.18.48,1.73.94,3.46,1.37,5.18h.14c.43-1.73.9-3.44,1.4-5.15.5-1.7,1-3.42,1.48-5.15L81.97.72c.14-.48.48-.72,1.01-.72h7.56c.62,0,.84.31.65.94l-15.34,45.58c-.14.43-.46.65-.94.65h-9.5Z"/>
    <path d="M.79,133.56c-.53,0-.79-.29-.79-.86l.94-45.43c0-.58.29-.86.86-.86h9.29c.43,0,.74.22.94.65l12.02,26.21,11.81-26.21c.24-.43.58-.65,1.01-.65h9.29c.53,0,.79.29.79.86l1.01,45.43c0,.58-.29.86-.86.86h-6.77c-.58,0-.86-.29-.86-.86l-.58-23.26c-.05-1.92-.02-3.85.07-5.8.1-1.94.17-3.85.22-5.72h-.22c-.77,1.87-1.57,3.76-2.41,5.65-.84,1.9-1.72,3.76-2.63,5.58l-8.86,18.65c-.19.38-.53.58-1.01.58h-.29c-.43,0-.74-.19-.94-.58l-8.93-18.86c-.91-1.78-1.78-3.61-2.59-5.51-.82-1.9-1.58-3.73-2.3-5.51h-.22c.1,1.82.17,3.71.22,5.65.05,1.94.05,3.85,0,5.72l-.58,23.4c0,.58-.26.86-.79.86H.79Z"/>
    <path d="M123.77,134.42c-6.1,0-10.54-1.24-13.32-3.71-2.79-2.47-4.01-5.92-3.67-10.33.09-.82.43-1.22,1.01-1.22h6.77c.62,0,.91.36.86,1.08,0,2.35.72,4.07,2.16,5.15s3.65,1.62,6.62,1.62,5.1-.47,6.52-1.4c1.41-.94,2.12-2.39,2.12-4.36,0-.91-.17-1.72-.5-2.41-.34-.7-.91-1.32-1.73-1.87s-1.92-1.12-3.31-1.69l-10.44-4.46c-2.3-1.01-4.15-2.1-5.54-3.28-1.39-1.18-2.38-2.53-2.95-4.07-.58-1.54-.86-3.29-.86-5.26.05-4.08,1.42-7.2,4.1-9.36s6.7-3.24,12.03-3.24c3.74,0,6.92.52,9.54,1.55,2.62,1.03,4.57,2.54,5.87,4.54,1.3,1.99,1.8,4.48,1.51,7.45-.1.86-.38,1.3-.87,1.3h-6.84c-.29,0-.5-.1-.65-.29-.14-.19-.19-.53-.14-1.01.14-1.92-.54-3.44-2.05-4.57-1.51-1.13-3.66-1.69-6.44-1.69-2.45,0-4.3.43-5.54,1.3s-1.87,2.16-1.87,3.89c0,.91.17,1.72.5,2.41.33.7.92,1.33,1.76,1.91s1.98,1.18,3.42,1.8l10.3,4.39c2.35.96,4.21,2.03,5.58,3.2,1.37,1.18,2.35,2.53,2.95,4.07.6,1.54.88,3.36.83,5.47,0,4.18-1.42,7.41-4.25,9.68-2.83,2.28-7.32,3.42-13.46,3.42Z"/>
  </g>
</svg>